:SAMPLES-PER-SECOND 30
:FULLY-SPECIFIED
:DEGREES
16
root  36.045 40.3158 -7.8155 -153.568 -87.0078 151.951
RightUpLeg  2.69752 -12.1213 -9.3705
RightLeg  9.11539 -5.47863 2.81486
RightFoot  -7.41294 -0.20209 4.40766
RightToes  0.00048216 0.542163 -0.142577
Spine  4.58611 1.2626 0.649402
Spine1  3.91332 1.83798 -2.05247
HEad  -1.37864 3.87504 -1.56692
LeftShoulder1  1.72803 -3.6596 -17.4077
LeftArm  -34.1554 22.7409 -9.32653
LeftForeArm  31.5762 -28.5273 -4.45803
LeftHand  -0.25398 0.0180481 5.50724
RightShoulder  1.08523 1.52849 14.7285
RightArm  -16.3477 -12.1507 6.86271
RightForeArm  -0.455202 28.0557 6.07801
RightHand  -1.60634 3.51059 -21.0264
LeftUpLeg  0.813803 5.1702 -0.761393
LeftLeg  8.05444 17.0416 -1.35235
LeftFoot  -9.91654 0.0711722 -0.921939
LeftToes  1.06246e-005 4.65855e-005 -8.18503e-006
17
root  35.9265 40.1998 -7.58898 -155.146 -86.6367 153.089
RightUpLeg  1.31368 -15.1332 -9.64678
RightLeg  12.934 -2.1683 1.37336
RightFoot  -8.33589 -0.183122 4.86916
RightToes  0.00048216 0.542163 -0.142577
Spine  5.09539 1.29512 0.284186
Spine1  4.4984 1.80581 -1.92509
HEad  -0.848757 3.97432 -1.88534
LeftShoulder1  1.9351 -3.73725 -20.1849
LeftArm  -33.3225 24.914 -11.9395
LeftForeArm  33.6869 -32.2022 -5.18408
LeftHand  -0.25398 0.0180481 5.50724
RightShoulder  1.44734 2.41174 17.8973
RightArm  -14.362 -14.0563 7.53812
RightForeArm  6.70488 32.7866 6.87917
RightHand  -1.12765 1.90997 -17.9841
LeftUpLeg  0.924772 5.50979 -1.21324
LeftLeg  9.37811 16.9218 -0.927525
LeftFoot  -11.0423 0.0684878 -0.778265
LeftToes  1.06246e-005 4.65855e-005 -8.18503e-006
18
root  35.8295 40.0604 -7.34507 -158.221 -86.159 155.768
RightUpLeg  -1.25417 -16.1866 -9.53924
RightLeg  18.2848 -0.176151 -0.258074
RightFoot  -8.43332 -0.230049 6.70917
RightToes  0.00048216 0.542163 -0.142577
Spine  5.80199 1.37085 -0.215937
Spine1  5.00001 1.72901 -1.54392
HEad  -0.277675 4.25079 -2.49725
LeftShoulder1  2.295 -4.18286 -23.5016
LeftArm  -31.986 26.9867 -14.6527
LeftForeArm  35.0431 -34.4426 -5.65626
LeftHand  -0.25398 0.0180481 5.50724
RightShoulder  1.84589 3.22215 21.1049
RightArm  -12.5749 -15.4314 8.61106
RightForeArm  13.385 36.3731 7.4606
RightHand  -0.635894 -0.286259 -14.413
LeftUpLeg  0.889739 6.14693 -1.53678
LeftLeg  10.8249 16.671 -0.599058
LeftFoot  -12.1281 0.0694853 -0.487091
LeftToes  1.06246e-005 4.65855e-005 -8.18503e-006
19
root  35.7546 39.9115 -7.10056 -162.742 -85.5128 159.697
RightUpLeg  -4.79551 -12.4719 -9.44977
RightLeg  25.4275 -2.86621 -1.75245
RightFoot  -6.6317 -0.437765 9.40195
RightToes  0.00048216 0.542163 -0.142577
Spine  7.05429 1.49542 -0.818672
Spine1  5.34174 1.63016 -1.05304
HEad  0.108758 4.73377 -3.42927
LeftShoulder1  2.77009 -4.83905 -27.0116
LeftArm  -30.3899 28.5255 -17.7865
LeftForeArm  35.9973 -34.5823 -5.64027
LeftHand  -0.25398 0.0180481 5.50724
RightShoulder  2.25807 3.96104 24.0796
RightArm  -10.5265 -16.2944 10.3325
RightForeArm  17.8575 38.4283 7.77837
RightHand  -0.288206 -2.55135 -11.2904
LeftUpLeg  1.01221 6.88138 -1.72152
LeftLeg  12.3583 16.5924 -0.249694
LeftFoot  -13.2158 0.0743426 -0.295719
LeftToes  1.06246e-005 4.65855e-005 -8.18503e-006
20
root  35.6614 39.7885 -6.87331 -167.591 -84.7205 163.62
RightUpLeg  -8.75097 -9.47029 -9.3108
RightLeg  33.5163 -5.41693 -4.10266
RightFoot  -2.78427 -0.792871 10.4217
RightToes  0.00048216 0.542163 -0.142577
Spine  8.70893 1.62542 -1.41064
Spine1  5.75905 1.53279 -0.588146
HEad  0.122352 5.35885 -4.35357
LeftShoulder1  3.22301 -5.4411 -29.922
LeftArm  -28.3916 29.1228 -21.8911
LeftForeArm  36.9288 -32.1674 -5.00622
LeftHand  -0.25398 0.0180481 5.50724
RightShoulder  2.67257 4.66174 26.6715
RightArm  -8.14794 -16.8395 12.8897
RightForeArm  20.4936 38.752 7.70974
RightHand  -0.117993 -4.11642 -8.6719
LeftUpLeg  1.70982 7.5167 -1.76928
LeftLeg  13.5627 16.7884 0.0328052
LeftFoot  -14.2133 0.0770438 -0.322087
LeftToes  1.06246e-005 4.65855e-005 -8.18503e-006
21
root  35.4944 39.706 -6.67482 -171.264 -83.9712 166.361
RightUpLeg  -12.6146 -7.59975 -8.88577
RightLeg  40.5639 -6.56872 -6.23215
RightFoot  1.20522 -0.96769 8.88453
RightToes  0.00048216 0.542163 -0.142577
Spine  10.037 1.68172 -1.89
Spine1  6.46618 1.42139 -0.256995
HEad  0.153933 6.05746 -4.85054
LeftShoulder1  3.63407 -6.01026 -32.1064
LeftArm  -25.6161 28.8197 -26.6621
LeftForeArm  37.4624 -27.5735 -3.93213
LeftHand  -0.25398 0.0180481 5.50724
RightShoulder  3.06922 5.29966 28.8734
RightArm  -5.72632 -17.3973 16.2153
RightForeArm  22.4654 37.5108 7.227
RightHand  -0.0569309 -4.87836 -6.15738
LeftUpLeg  2.80383 8.02754 -1.74065
LeftLeg  14.1843 17.0188 0.119606
LeftFoot  -15.0522 0.0753371 -0.462759
LeftToes  1.06246e-005 4.65855e-005 -8.18503e-006
22
root  35.2278 39.6672 -6.49906 -174.838 -83.5259 169.422
RightUpLeg  -15.9146 -6.94989 -7.94587
RightLeg  44.4738 -5.65471 -6.2039
RightFoot  3.15208 -0.88362 7.08138
RightToes  0.00048216 0.542163 -0.142577
Spine  10.6078 1.56555 -1.94965
Spine1  7.2951 1.25065 -0.119351
HEad  0.761383 6.75269 -4.95191
LeftShoulder1  4.1529 -6.73576 -34.4483
LeftArm  -22.1309 28.0274 -30.9099
LeftForeArm  37.1109 -21.9855 -2.85092
LeftHand  -0.25398 0.0180481 5.50724
RightShoulder  3.39694 5.75603 30.7295
RightArm  -3.47947 -18.2824 20.0784
RightForeArm  23.9851 35.248 6.51115
RightHand  -0.0371949 -5.32343 -3.97912
LeftUpLeg  3.81202 8.35372 -1.59207
LeftLeg  14.2864 17.1342 0.0901766
LeftFoot  -15.6703 0.0759037 -0.481222
LeftToes  1.06246e-005 4.65855e-005 -8.18503e-006
